<mxfile host="app.diagrams.net" modified="2022-10-16T12:28:43.660Z" agent="5.0 (Macintosh; Intel Mac OS X 10_15_7) AppleWebKit/605.1.15 (KHTML, like Gecko) Version/16.0 Safari/605.1.15" etag="f8yuWfkViIk0l5ggP4d4" version="20.4.0" type="github">
  <diagram id="kVp-jIOMjinsNTEeKq0U" name="Page-1">
    <mxGraphModel dx="1206" dy="980" grid="1" gridSize="10" guides="1" tooltips="1" connect="1" arrows="1" fold="1" page="1" pageScale="1" pageWidth="827" pageHeight="1169" math="0" shadow="0">
      <root>
        <mxCell id="0" />
        <mxCell id="1" parent="0" />
        <mxCell id="4sZ4pAB3aMh7I1FLcIfw-1" value="" style="verticalLabelPosition=bottom;verticalAlign=top;html=1;shadow=0;dashed=0;strokeWidth=1;shape=mxgraph.android.phone2;strokeColor=#314354;fillColor=#647687;fontColor=#ffffff;" vertex="1" parent="1">
          <mxGeometry x="140" y="110" width="200" height="390" as="geometry" />
        </mxCell>
        <mxCell id="4sZ4pAB3aMh7I1FLcIfw-3" value="Activity" style="rounded=0;whiteSpace=wrap;html=1;labelPosition=center;verticalLabelPosition=top;align=center;verticalAlign=bottom;fillColor=#fff2cc;strokeColor=#d6b656;fontColor=#FFB366;" vertex="1" parent="1">
          <mxGeometry x="150" y="160" width="180" height="300" as="geometry" />
        </mxCell>
        <mxCell id="4sZ4pAB3aMh7I1FLcIfw-4" value="Frame" style="rounded=0;whiteSpace=wrap;html=1;labelPosition=center;verticalLabelPosition=top;align=center;verticalAlign=bottom;fillColor=#f8cecc;strokeColor=#b85450;fontColor=#FF3399;" vertex="1" parent="1">
          <mxGeometry x="160" y="225" width="160" height="170" as="geometry" />
        </mxCell>
      </root>
    </mxGraphModel>
  </diagram>
</mxfile>
